<svg width="800" height="800" fill="none">
	<circle cx="284" cy="703" r="3" fill="black" />
	<circle cx="339" cy="698" r="3" fill="black" />
	<circle cx="411" cy="567" r="3" fill="black" />
	<circle cx="321" cy="698" r="3" fill="black" />
	<circle cx="337" cy="704" r="3" fill="black" />
	<circle cx="333" cy="702" r="3" fill="black" />
	<circle cx="284" cy="719" r="3" fill="black" />
	<circle cx="481" cy="622" r="3" fill="black" />
	<circle cx="301" cy="717" r="3" fill="black" />
	<circle cx="327" cy="693" r="3" fill="black" />
	<circle cx="290" cy="712" r="3" fill="black" />
	<circle cx="331" cy="698" r="3" fill="black" />
	<circle cx="317" cy="697" r="3" fill="black" />
	<circle cx="296" cy="732" r="3" fill="black" />
	<circle cx="322" cy="701" r="3" fill="black" />
	<circle cx="335" cy="694" r="3" fill="black" />
	<circle cx="424" cy="517" r="3" fill="black" />
	<circle cx="335" cy="700" r="3" fill="black" />
	<circle cx="288" cy="702" r="3" fill="black" />
	<circle cx="339" cy="702" r="3" fill="black" />
	<circle cx="273" cy="707" r="3" fill="black" />
	<circle cx="322" cy="697" r="3" fill="black" />
	<circle cx="326" cy="697" r="3" fill="black" />
	<circle cx="337" cy="703" r="3" fill="black" />
	<circle cx="316" cy="725" r="3" fill="black" />
	<circle cx="334" cy="696" r="3" fill="black" />
	<circle cx="331" cy="701" r="3" fill="black" />
	<circle cx="321" cy="696" r="3" fill="black" />
	<circle cx="327" cy="697" r="3" fill="black" />
	<circle cx="269" cy="715" r="3" fill="black" />
	<circle cx="331" cy="702" r="3" fill="black" />
	<circle cx="321" cy="699" r="3" fill="black" />
	<circle cx="337" cy="704" r="3" fill="black" />
	<circle cx="312" cy="696" r="3" fill="black" />
	<circle cx="288" cy="694" r="3" fill="black" />
	<circle cx="322" cy="698" r="3" fill="black" />
	<circle cx="339" cy="691" r="3" fill="black" />
	<circle cx="289" cy="699" r="3" fill="black" />
	<circle cx="318" cy="707" r="3" fill="black" />
	<circle cx="318" cy="695" r="3" fill="black" />
	<circle cx="328" cy="696" r="3" fill="black" />
	<circle cx="285" cy="696" r="3" fill="black" />
	<circle cx="338" cy="693" r="3" fill="black" />
	<circle cx="336" cy="699" r="3" fill="black" />
	<circle cx="305" cy="707" r="3" fill="black" />
	<circle cx="335" cy="703" r="3" fill="black" />
	<circle cx="334" cy="702" r="3" fill="black" />
	<circle cx="293" cy="711" r="3" fill="black" />
	<circle cx="292" cy="703" r="3" fill="black" />
	<circle cx="320" cy="705" r="3" fill="black" />
</svg>