<svg width="800" height="800" fill="none">
	<circle cx="299" cy="703" r="3" fill="black" />
	<circle cx="340" cy="697" r="3" fill="black" />
	<circle cx="510" cy="383" r="3" fill="black" />
	<circle cx="311" cy="695" r="3" fill="black" />
	<circle cx="337" cy="704" r="3" fill="black" />
	<circle cx="335" cy="703" r="3" fill="black" />
	<circle cx="295" cy="716" r="3" fill="black" />
	<circle cx="503" cy="609" r="3" fill="black" />
	<circle cx="325" cy="708" r="3" fill="black" />
	<circle cx="327" cy="693" r="3" fill="black" />
	<circle cx="287" cy="713" r="3" fill="black" />
	<circle cx="332" cy="700" r="3" fill="black" />
	<circle cx="311" cy="695" r="3" fill="black" />
	<circle cx="290" cy="736" r="3" fill="black" />
	<circle cx="318" cy="700" r="3" fill="black" />
	<circle cx="335" cy="695" r="3" fill="black" />
	<circle cx="469" cy="421" r="3" fill="black" />
	<circle cx="334" cy="696" r="3" fill="black" />
	<circle cx="300" cy="702" r="3" fill="black" />
	<circle cx="338" cy="703" r="3" fill="black" />
	<circle cx="287" cy="706" r="3" fill="black" />
	<circle cx="318" cy="695" r="3" fill="black" />
	<circle cx="322" cy="694" r="3" fill="black" />
	<circle cx="337" cy="704" r="3" fill="black" />
	<circle cx="322" cy="719" r="3" fill="black" />
	<circle cx="334" cy="693" r="3" fill="black" />
	<circle cx="326" cy="698" r="3" fill="black" />
	<circle cx="323" cy="697" r="3" fill="black" />
	<circle cx="326" cy="696" r="3" fill="black" />
	<circle cx="293" cy="711" r="3" fill="black" />
	<circle cx="317" cy="698" r="3" fill="black" />
	<circle cx="295" cy="691" r="3" fill="black" />
	<circle cx="332" cy="697" r="3" fill="black" />
	<circle cx="305" cy="693" r="3" fill="black" />
	<circle cx="293" cy="695" r="3" fill="black" />
	<circle cx="321" cy="698" r="3" fill="black" />
	<circle cx="339" cy="688" r="3" fill="black" />
	<circle cx="302" cy="700" r="3" fill="black" />
	<circle cx="316" cy="707" r="3" fill="black" />
	<circle cx="321" cy="696" r="3" fill="black" />
	<circle cx="329" cy="697" r="3" fill="black" />
	<circle cx="281" cy="695" r="3" fill="black" />
	<circle cx="338" cy="695" r="3" fill="black" />
	<circle cx="335" cy="698" r="3" fill="black" />
	<circle cx="308" cy="706" r="3" fill="black" />
	<circle cx="333" cy="702" r="3" fill="black" />
	<circle cx="325" cy="696" r="3" fill="black" />
	<circle cx="274" cy="714" r="3" fill="black" />
	<circle cx="323" cy="704" r="3" fill="black" />
	<circle cx="316" cy="705" r="3" fill="black" />
</svg>