<svg width="800" height="800" fill="none">
	<circle cx="284" cy="703" r="3" fill="black" />
	<circle cx="339" cy="699" r="3" fill="black" />
	<circle cx="482" cy="434" r="3" fill="black" />
	<circle cx="318" cy="697" r="3" fill="black" />
	<circle cx="337" cy="704" r="3" fill="black" />
	<circle cx="332" cy="701" r="3" fill="black" />
	<circle cx="282" cy="720" r="3" fill="black" />
	<circle cx="338" cy="703" r="3" fill="black" />
	<circle cx="288" cy="722" r="3" fill="black" />
	<circle cx="333" cy="700" r="3" fill="black" />
	<circle cx="277" cy="715" r="3" fill="black" />
	<circle cx="335" cy="702" r="3" fill="black" />
	<circle cx="298" cy="691" r="3" fill="black" />
	<circle cx="320" cy="715" r="3" fill="black" />
	<circle cx="329" cy="702" r="3" fill="black" />
	<circle cx="336" cy="699" r="3" fill="black" />
	<circle cx="472" cy="415" r="3" fill="black" />
	<circle cx="335" cy="700" r="3" fill="black" />
	<circle cx="294" cy="702" r="3" fill="black" />
	<circle cx="340" cy="702" r="3" fill="black" />
	<circle cx="319" cy="705" r="3" fill="black" />
	<circle cx="320" cy="696" r="3" fill="black" />
	<circle cx="326" cy="697" r="3" fill="black" />
	<circle cx="337" cy="703" r="3" fill="black" />
	<circle cx="309" cy="732" r="3" fill="black" />
	<circle cx="333" cy="693" r="3" fill="black" />
	<circle cx="323" cy="696" r="3" fill="black" />
	<circle cx="332" cy="701" r="3" fill="black" />
	<circle cx="323" cy="694" r="3" fill="black" />
	<circle cx="275" cy="714" r="3" fill="black" />
	<circle cx="323" cy="700" r="3" fill="black" />
	<circle cx="292" cy="690" r="3" fill="black" />
	<circle cx="332" cy="697" r="3" fill="black" />
	<circle cx="308" cy="694" r="3" fill="black" />
	<circle cx="298" cy="696" r="3" fill="black" />
	<circle cx="326" cy="700" r="3" fill="black" />
	<circle cx="338" cy="693" r="3" fill="black" />
	<circle cx="292" cy="699" r="3" fill="black" />
	<circle cx="317" cy="707" r="3" fill="black" />
	<circle cx="324" cy="698" r="3" fill="black" />
	<circle cx="331" cy="699" r="3" fill="black" />
	<circle cx="306" cy="699" r="3" fill="black" />
	<circle cx="339" cy="691" r="3" fill="black" />
	<circle cx="335" cy="696" r="3" fill="black" />
	<circle cx="311" cy="706" r="3" fill="black" />
	<circle cx="333" cy="701" r="3" fill="black" />
	<circle cx="324" cy="696" r="3" fill="black" />
	<circle cx="286" cy="712" r="3" fill="black" />
	<circle cx="304" cy="703" r="3" fill="black" />
	<circle cx="305" cy="706" r="3" fill="black" />
</svg>