<svg width="800" height="800" fill="none">
	<circle cx="311" cy="704" r="3" fill="black" />
	<circle cx="340" cy="697" r="3" fill="black" />
	<circle cx="440" cy="513" r="3" fill="black" />
	<circle cx="309" cy="694" r="3" fill="black" />
	<circle cx="337" cy="704" r="3" fill="black" />
	<circle cx="335" cy="703" r="3" fill="black" />
	<circle cx="278" cy="721" r="3" fill="black" />
	<circle cx="363" cy="689" r="3" fill="black" />
	<circle cx="311" cy="713" r="3" fill="black" />
	<circle cx="329" cy="695" r="3" fill="black" />
	<circle cx="280" cy="714" r="3" fill="black" />
	<circle cx="331" cy="699" r="3" fill="black" />
	<circle cx="310" cy="695" r="3" fill="black" />
	<circle cx="276" cy="746" r="3" fill="black" />
	<circle cx="321" cy="700" r="3" fill="black" />
	<circle cx="335" cy="695" r="3" fill="black" />
	<circle cx="424" cy="517" r="3" fill="black" />
	<circle cx="335" cy="699" r="3" fill="black" />
	<circle cx="291" cy="702" r="3" fill="black" />
	<circle cx="338" cy="703" r="3" fill="black" />
	<circle cx="306" cy="706" r="3" fill="black" />
	<circle cx="313" cy="692" r="3" fill="black" />
	<circle cx="329" cy="699" r="3" fill="black" />
	<circle cx="337" cy="703" r="3" fill="black" />
	<circle cx="316" cy="725" r="3" fill="black" />
	<circle cx="336" cy="701" r="3" fill="black" />
	<circle cx="324" cy="697" r="3" fill="black" />
	<circle cx="324" cy="698" r="3" fill="black" />
	<circle cx="329" cy="698" r="3" fill="black" />
	<circle cx="287" cy="712" r="3" fill="black" />
	<circle cx="319" cy="699" r="3" fill="black" />
	<circle cx="313" cy="696" r="3" fill="black" />
	<circle cx="333" cy="699" r="3" fill="black" />
	<circle cx="310" cy="695" r="3" fill="black" />
	<circle cx="304" cy="697" r="3" fill="black" />
	<circle cx="318" cy="697" r="3" fill="black" />
	<circle cx="338" cy="695" r="3" fill="black" />
	<circle cx="302" cy="700" r="3" fill="black" />
	<circle cx="328" cy="705" r="3" fill="black" />
	<circle cx="316" cy="694" r="3" fill="black" />
	<circle cx="335" cy="703" r="3" fill="black" />
	<circle cx="272" cy="694" r="3" fill="black" />
	<circle cx="338" cy="698" r="3" fill="black" />
	<circle cx="336" cy="699" r="3" fill="black" />
	<circle cx="288" cy="708" r="3" fill="black" />
	<circle cx="333" cy="701" r="3" fill="black" />
	<circle cx="330" cy="699" r="3" fill="black" />
	<circle cx="315" cy="707" r="3" fill="black" />
	<circle cx="291" cy="703" r="3" fill="black" />
	<circle cx="312" cy="706" r="3" fill="black" />
</svg>