<svg width="800" height="800" fill="none">
	<circle cx="327" cy="704" r="3" fill="black" />
	<circle cx="339" cy="698" r="3" fill="black" />
	<circle cx="452" cy="490" r="3" fill="black" />
	<circle cx="317" cy="697" r="3" fill="black" />
	<circle cx="337" cy="704" r="3" fill="black" />
	<circle cx="332" cy="701" r="3" fill="black" />
	<circle cx="287" cy="718" r="3" fill="black" />
	<circle cx="532" cy="593" r="3" fill="black" />
	<circle cx="300" cy="717" r="3" fill="black" />
	<circle cx="328" cy="695" r="3" fill="black" />
	<circle cx="264" cy="717" r="3" fill="black" />
	<circle cx="330" cy="698" r="3" fill="black" />
	<circle cx="303" cy="692" r="3" fill="black" />
	<circle cx="302" cy="728" r="3" fill="black" />
	<circle cx="319" cy="700" r="3" fill="black" />
	<circle cx="336" cy="699" r="3" fill="black" />
	<circle cx="426" cy="513" r="3" fill="black" />
	<circle cx="335" cy="699" r="3" fill="black" />
	<circle cx="277" cy="701" r="3" fill="black" />
	<circle cx="340" cy="702" r="3" fill="black" />
	<circle cx="314" cy="705" r="3" fill="black" />
	<circle cx="319" cy="695" r="3" fill="black" />
	<circle cx="329" cy="699" r="3" fill="black" />
	<circle cx="337" cy="703" r="3" fill="black" />
	<circle cx="317" cy="724" r="3" fill="black" />
	<circle cx="335" cy="697" r="3" fill="black" />
	<circle cx="326" cy="698" r="3" fill="black" />
	<circle cx="323" cy="697" r="3" fill="black" />
	<circle cx="330" cy="699" r="3" fill="black" />
	<circle cx="279" cy="713" r="3" fill="black" />
	<circle cx="322" cy="700" r="3" fill="black" />
	<circle cx="309" cy="695" r="3" fill="black" />
	<circle cx="331" cy="695" r="3" fill="black" />
	<circle cx="307" cy="694" r="3" fill="black" />
	<circle cx="303" cy="697" r="3" fill="black" />
	<circle cx="329" cy="701" r="3" fill="black" />
	<circle cx="339" cy="691" r="3" fill="black" />
	<circle cx="295" cy="699" r="3" fill="black" />
	<circle cx="323" cy="706" r="3" fill="black" />
	<circle cx="331" cy="701" r="3" fill="black" />
	<circle cx="330" cy="698" r="3" fill="black" />
	<circle cx="285" cy="696" r="3" fill="black" />
	<circle cx="338" cy="698" r="3" fill="black" />
	<circle cx="336" cy="700" r="3" fill="black" />
	<circle cx="301" cy="707" r="3" fill="black" />
	<circle cx="332" cy="701" r="3" fill="black" />
	<circle cx="331" cy="700" r="3" fill="black" />
	<circle cx="301" cy="710" r="3" fill="black" />
	<circle cx="292" cy="703" r="3" fill="black" />
	<circle cx="300" cy="706" r="3" fill="black" />
</svg>