<svg width="800" height="800" fill="none">
	<circle cx="309" cy="704" r="3" fill="black" />
	<circle cx="339" cy="700" r="3" fill="black" />
	<circle cx="490" cy="420" r="3" fill="black" />
	<circle cx="321" cy="698" r="3" fill="black" />
	<circle cx="337" cy="704" r="3" fill="black" />
	<circle cx="335" cy="703" r="3" fill="black" />
	<circle cx="304" cy="713" r="3" fill="black" />
	<circle cx="480" cy="622" r="3" fill="black" />
	<circle cx="297" cy="718" r="3" fill="black" />
	<circle cx="330" cy="697" r="3" fill="black" />
	<circle cx="283" cy="714" r="3" fill="black" />
	<circle cx="331" cy="699" r="3" fill="black" />
	<circle cx="301" cy="692" r="3" fill="black" />
	<circle cx="308" cy="724" r="3" fill="black" />
	<circle cx="318" cy="700" r="3" fill="black" />
	<circle cx="335" cy="695" r="3" fill="black" />
	<circle cx="456" cy="449" r="3" fill="black" />
	<circle cx="335" cy="699" r="3" fill="black" />
	<circle cx="270" cy="701" r="3" fill="black" />
	<circle cx="339" cy="702" r="3" fill="black" />
	<circle cx="294" cy="706" r="3" fill="black" />
	<circle cx="307" cy="690" r="3" fill="black" />
	<circle cx="324" cy="696" r="3" fill="black" />
	<circle cx="337" cy="703" r="3" fill="black" />
	<circle cx="318" cy="723" r="3" fill="black" />
	<circle cx="334" cy="696" r="3" fill="black" />
	<circle cx="331" cy="700" r="3" fill="black" />
	<circle cx="321" cy="696" r="3" fill="black" />
	<circle cx="329" cy="698" r="3" fill="black" />
	<circle cx="309" cy="708" r="3" fill="black" />
	<circle cx="318" cy="699" r="3" fill="black" />
	<circle cx="319" cy="698" r="3" fill="black" />
	<circle cx="328" cy="692" r="3" fill="black" />
	<circle cx="313" cy="696" r="3" fill="black" />
	<circle cx="293" cy="695" r="3" fill="black" />
	<circle cx="323" cy="699" r="3" fill="black" />
	<circle cx="338" cy="693" r="3" fill="black" />
	<circle cx="291" cy="699" r="3" fill="black" />
	<circle cx="323" cy="706" r="3" fill="black" />
	<circle cx="326" cy="699" r="3" fill="black" />
	<circle cx="329" cy="698" r="3" fill="black" />
	<circle cx="286" cy="696" r="3" fill="black" />
	<circle cx="338" cy="694" r="3" fill="black" />
	<circle cx="336" cy="698" r="3" fill="black" />
	<circle cx="311" cy="706" r="3" fill="black" />
	<circle cx="333" cy="702" r="3" fill="black" />
	<circle cx="322" cy="694" r="3" fill="black" />
	<circle cx="303" cy="710" r="3" fill="black" />
	<circle cx="307" cy="703" r="3" fill="black" />
	<circle cx="329" cy="704" r="3" fill="black" />
</svg>