<svg width="800" height="800" fill="none">
	<circle cx="301" cy="703" r="3" fill="black" />
	<circle cx="340" cy="697" r="3" fill="black" />
	<circle cx="470" cy="458" r="3" fill="black" />
	<circle cx="308" cy="694" r="3" fill="black" />
	<circle cx="337" cy="704" r="3" fill="black" />
	<circle cx="334" cy="702" r="3" fill="black" />
	<circle cx="326" cy="707" r="3" fill="black" />
	<circle cx="373" cy="683" r="3" fill="black" />
	<circle cx="299" cy="717" r="3" fill="black" />
	<circle cx="331" cy="698" r="3" fill="black" />
	<circle cx="276" cy="715" r="3" fill="black" />
	<circle cx="331" cy="698" r="3" fill="black" />
	<circle cx="312" cy="695" r="3" fill="black" />
	<circle cx="324" cy="713" r="3" fill="black" />
	<circle cx="326" cy="702" r="3" fill="black" />
	<circle cx="336" cy="699" r="3" fill="black" />
	<circle cx="482" cy="394" r="3" fill="black" />
	<circle cx="335" cy="699" r="3" fill="black" />
	<circle cx="300" cy="702" r="3" fill="black" />
	<circle cx="339" cy="703" r="3" fill="black" />
	<circle cx="302" cy="706" r="3" fill="black" />
	<circle cx="315" cy="694" r="3" fill="black" />
	<circle cx="332" cy="701" r="3" fill="black" />
	<circle cx="337" cy="703" r="3" fill="black" />
	<circle cx="327" cy="714" r="3" fill="black" />
	<circle cx="332" cy="689" r="3" fill="black" />
	<circle cx="321" cy="695" r="3" fill="black" />
	<circle cx="326" cy="698" r="3" fill="black" />
	<circle cx="326" cy="696" r="3" fill="black" />
	<circle cx="275" cy="714" r="3" fill="black" />
	<circle cx="332" cy="702" r="3" fill="black" />
	<circle cx="321" cy="699" r="3" fill="black" />
	<circle cx="334" cy="699" r="3" fill="black" />
	<circle cx="306" cy="694" r="3" fill="black" />
	<circle cx="325" cy="702" r="3" fill="black" />
	<circle cx="334" cy="703" r="3" fill="black" />
	<circle cx="338" cy="696" r="3" fill="black" />
	<circle cx="299" cy="700" r="3" fill="black" />
	<circle cx="323" cy="706" r="3" fill="black" />
	<circle cx="316" cy="694" r="3" fill="black" />
	<circle cx="326" cy="695" r="3" fill="black" />
	<circle cx="279" cy="695" r="3" fill="black" />
	<circle cx="338" cy="695" r="3" fill="black" />
	<circle cx="335" cy="696" r="3" fill="black" />
	<circle cx="327" cy="705" r="3" fill="black" />
	<circle cx="335" cy="703" r="3" fill="black" />
	<circle cx="323" cy="694" r="3" fill="black" />
	<circle cx="326" cy="706" r="3" fill="black" />
	<circle cx="303" cy="703" r="3" fill="black" />
	<circle cx="321" cy="705" r="3" fill="black" />
</svg>