<svg width="800" height="800" fill="none">
	<circle cx="323" cy="704" r="3" fill="black" />
	<circle cx="339" cy="698" r="3" fill="black" />
	<circle cx="453" cy="488" r="3" fill="black" />
	<circle cx="326" cy="700" r="3" fill="black" />
	<circle cx="337" cy="704" r="3" fill="black" />
	<circle cx="335" cy="703" r="3" fill="black" />
	<circle cx="275" cy="722" r="3" fill="black" />
	<circle cx="383" cy="678" r="3" fill="black" />
	<circle cx="273" cy="727" r="3" fill="black" />
	<circle cx="331" cy="697" r="3" fill="black" />
	<circle cx="269" cy="716" r="3" fill="black" />
	<circle cx="331" cy="698" r="3" fill="black" />
	<circle cx="324" cy="699" r="3" fill="black" />
	<circle cx="302" cy="728" r="3" fill="black" />
	<circle cx="323" cy="701" r="3" fill="black" />
	<circle cx="336" cy="697" r="3" fill="black" />
	<circle cx="407" cy="555" r="3" fill="black" />
	<circle cx="335" cy="699" r="3" fill="black" />
	<circle cx="269" cy="701" r="3" fill="black" />
	<circle cx="340" cy="702" r="3" fill="black" />
	<circle cx="297" cy="706" r="3" fill="black" />
	<circle cx="319" cy="695" r="3" fill="black" />
	<circle cx="321" cy="694" r="3" fill="black" />
	<circle cx="337" cy="703" r="3" fill="black" />
	<circle cx="301" cy="740" r="3" fill="black" />
	<circle cx="333" cy="693" r="3" fill="black" />
	<circle cx="332" cy="701" r="3" fill="black" />
	<circle cx="329" cy="700" r="3" fill="black" />
	<circle cx="329" cy="698" r="3" fill="black" />
	<circle cx="271" cy="714" r="3" fill="black" />
	<circle cx="312" cy="697" r="3" fill="black" />
	<circle cx="322" cy="699" r="3" fill="black" />
	<circle cx="333" cy="698" r="3" fill="black" />
	<circle cx="300" cy="692" r="3" fill="black" />
	<circle cx="306" cy="698" r="3" fill="black" />
	<circle cx="322" cy="699" r="3" fill="black" />
	<circle cx="338" cy="694" r="3" fill="black" />
	<circle cx="314" cy="701" r="3" fill="black" />
	<circle cx="317" cy="707" r="3" fill="black" />
	<circle cx="319" cy="696" r="3" fill="black" />
	<circle cx="330" cy="698" r="3" fill="black" />
	<circle cx="281" cy="695" r="3" fill="black" />
	<circle cx="338" cy="699" r="3" fill="black" />
	<circle cx="335" cy="696" r="3" fill="black" />
	<circle cx="297" cy="707" r="3" fill="black" />
	<circle cx="331" cy="700" r="3" fill="black" />
	<circle cx="326" cy="697" r="3" fill="black" />
	<circle cx="286" cy="712" r="3" fill="black" />
	<circle cx="293" cy="703" r="3" fill="black" />
	<circle cx="309" cy="706" r="3" fill="black" />
</svg>